<svg width="30" height="30" viewBox="0 0 30 30" fill="none" xmlns="http://www.w3.org/2000/svg">
<mask id="mask0" mask-type="alpha" maskUnits="userSpaceOnUse" x="2" y="4" width="26" height="22">
<path d="M21.0861 21.2555C20.2082 21.2555 19.6356 21.8441 19.6356 22.7074C19.6356 23.5707 20.2082 24.1593 21.0861 24.1593C21.9641 24.1593 22.5367 23.5707 22.5367 22.7074C22.5367 21.8441 21.9641 21.2555 21.0861 21.2555ZM10.1689 7.32528H15.6275C15.6275 5.16708 16.8872 4.5 21.0861 4.5C24.6743 4.5 25.934 4.93164 26.5448 6.38352C26.0867 6.03036 25.3614 5.83416 24.5598 5.83416H21.0861C17.8033 5.83416 16.9635 6.14808 16.9635 7.32528V8.6202C16.9635 9.71893 18.0324 10.1113 21.0861 10.1113C23.1474 10.1113 23.9872 9.99361 24.6743 9.6012C25.1706 9.83665 25.3614 10.1506 25.3614 10.7784C24.7507 11.1316 23.9109 11.3278 22.613 11.4062C22.9566 12.1126 23.6437 12.6227 24.4835 12.6227C25.6286 12.6227 26.5448 11.6809 26.5448 10.5037C26.5448 9.32652 25.6286 8.38476 24.4835 8.38476C24.1399 8.38476 23.8345 8.46324 23.6819 8.58096C23.5673 8.73792 23.3765 8.8164 23.1093 8.8164C22.5749 8.8164 22.2695 8.54172 22.2695 7.99236C22.2695 7.40376 22.5749 7.20756 23.1856 7.20756H23.3765C23.72 7.08984 24.0636 7.01136 24.4835 7.01136C26.3539 7.01136 27.8808 8.58096 27.8808 10.5037C27.8808 12.3872 26.3539 13.9569 24.4835 13.9569C22.9566 13.9569 21.6206 12.8974 21.2007 11.4455H21.0861C17.0781 11.4455 15.6275 10.6999 15.6275 8.6202H10.1689V7.32528ZM7.45864 21.2555C6.58067 21.2555 6.00809 21.8441 6.00809 22.7074C6.00809 23.5707 6.58067 24.1593 7.45864 24.1593C8.3366 24.1593 8.90918 23.5707 8.90918 22.7074C8.90918 21.8441 8.3366 21.2555 7.45864 21.2555ZM10.1689 22.7074H18.3759C18.3759 21.1378 19.5211 19.9606 21.0861 19.9606C22.6512 19.9606 23.7964 21.1378 23.7964 22.7074C23.7964 24.277 22.6512 25.4542 21.0861 25.4542C20.0173 25.4542 19.1394 24.9048 18.6813 24.0415H9.86349C9.40542 24.9048 8.52746 25.4542 7.45864 25.4542C5.89357 25.4542 4.7484 24.277 4.7484 22.7074C4.7484 21.1378 5.89357 19.9606 7.45864 19.9606C9.0237 19.9606 10.1689 21.1378 10.1689 22.7074ZM2 20.2745C2 18.3517 2.11452 18.0771 3.98496 15.8011C5.89357 13.4467 6.80971 12.8974 8.83284 12.8974H13.6807C15.8565 12.8974 17.0399 13.2898 18.7576 14.5062L21.6587 16.7429L23.5292 17.2138C25.5523 17.6847 26.5066 18.9011 26.5066 20.9023C26.5066 21.8833 26.2394 22.7466 25.7432 23.4529L24.6743 22.6681C25.0561 22.0795 25.1706 21.6479 25.1706 20.9023C25.1706 19.5289 24.4835 18.7834 22.7657 18.3517L20.8953 17.8809L18.0705 15.6834C16.6963 14.6239 15.513 14.2315 13.6807 14.2315H8.83284C7.26778 14.2315 6.69519 14.6239 4.93927 16.7821C3.48872 18.5872 3.33603 18.8226 3.33603 20.4707V21.2947C3.33603 21.8833 3.45055 22.2365 3.7941 22.5897L2.87796 23.4529C2.26721 22.9036 2 22.2365 2 21.2947V20.2745Z" fill="white"/>
</mask>
<g mask="url(#mask0)">
<path d="M21.0861 21.2555C20.2082 21.2555 19.6356 21.8441 19.6356 22.7074C19.6356 23.5707 20.2082 24.1593 21.0861 24.1593C21.9641 24.1593 22.5367 23.5707 22.5367 22.7074C22.5367 21.8441 21.9641 21.2555 21.0861 21.2555ZM10.1689 7.32528H15.6275C15.6275 5.16708 16.8872 4.5 21.0861 4.5C24.6743 4.5 25.934 4.93164 26.5448 6.38352C26.0867 6.03036 25.3614 5.83416 24.5598 5.83416H21.0861C17.8033 5.83416 16.9635 6.14808 16.9635 7.32528V8.6202C16.9635 9.71893 18.0324 10.1113 21.0861 10.1113C23.1474 10.1113 23.9872 9.99361 24.6743 9.6012C25.1706 9.83665 25.3614 10.1506 25.3614 10.7784C24.7507 11.1316 23.9109 11.3278 22.613 11.4062C22.9566 12.1126 23.6437 12.6227 24.4835 12.6227C25.6286 12.6227 26.5448 11.6809 26.5448 10.5037C26.5448 9.32652 25.6286 8.38476 24.4835 8.38476C24.1399 8.38476 23.8345 8.46324 23.6819 8.58096C23.5673 8.73792 23.3765 8.8164 23.1093 8.8164C22.5749 8.8164 22.2695 8.54172 22.2695 7.99236C22.2695 7.40376 22.5749 7.20756 23.1856 7.20756H23.3765C23.72 7.08984 24.0636 7.01136 24.4835 7.01136C26.3539 7.01136 27.8808 8.58096 27.8808 10.5037C27.8808 12.3872 26.3539 13.9569 24.4835 13.9569C22.9566 13.9569 21.6206 12.8974 21.2007 11.4455H21.0861C17.0781 11.4455 15.6275 10.6999 15.6275 8.6202H10.1689V7.32528ZM7.45864 21.2555C6.58067 21.2555 6.00809 21.8441 6.00809 22.7074C6.00809 23.5707 6.58067 24.1593 7.45864 24.1593C8.3366 24.1593 8.90918 23.5707 8.90918 22.7074C8.90918 21.8441 8.3366 21.2555 7.45864 21.2555ZM10.1689 22.7074H18.3759C18.3759 21.1378 19.5211 19.9606 21.0861 19.9606C22.6512 19.9606 23.7964 21.1378 23.7964 22.7074C23.7964 24.277 22.6512 25.4542 21.0861 25.4542C20.0173 25.4542 19.1394 24.9048 18.6813 24.0415H9.86349C9.40542 24.9048 8.52746 25.4542 7.45864 25.4542C5.89357 25.4542 4.7484 24.277 4.7484 22.7074C4.7484 21.1378 5.89357 19.9606 7.45864 19.9606C9.0237 19.9606 10.1689 21.1378 10.1689 22.7074ZM2 20.2745C2 18.3517 2.11452 18.0771 3.98496 15.8011C5.89357 13.4467 6.80971 12.8974 8.83284 12.8974H13.6807C15.8565 12.8974 17.0399 13.2898 18.7576 14.5062L21.6587 16.7429L23.5292 17.2138C25.5523 17.6847 26.5066 18.9011 26.5066 20.9023C26.5066 21.8833 26.2394 22.7466 25.7432 23.4529L24.6743 22.6681C25.0561 22.0795 25.1706 21.6479 25.1706 20.9023C25.1706 19.5289 24.4835 18.7834 22.7657 18.3517L20.8953 17.8809L18.0705 15.6834C16.6963 14.6239 15.513 14.2315 13.6807 14.2315H8.83284C7.26778 14.2315 6.69519 14.6239 4.93927 16.7821C3.48872 18.5872 3.33603 18.8226 3.33603 20.4707V21.2947C3.33603 21.8833 3.45055 22.2365 3.7941 22.5897L2.87796 23.4529C2.26721 22.9036 2 22.2365 2 21.2947V20.2745Z" fill="#EFDF00"/>
</g>
</svg>
