<svg width="30" height="30" viewBox="0 0 30 30" fill="none" xmlns="http://www.w3.org/2000/svg">
<mask id="mask0" mask-type="alpha" maskUnits="userSpaceOnUse" x="2" y="3" width="26" height="24">
<path d="M16.3473 14.9626C14.5981 13.7664 13.7242 11.972 13.7242 9.65421C13.7242 5.69159 16.6387 3 20.8627 3C25.0868 3 28 5.72897 28 9.65421C28 13.5794 25.0868 16.3084 20.8627 16.3084C20.2424 16.3084 19.8054 16.271 19.1148 16.1215C18.2409 17.0561 17.3305 17.8785 16.3109 18.7009L15.4721 17.6916C16.6751 16.7196 17.6947 15.8224 18.6779 14.7383C19.5869 14.9626 20.098 15.0374 20.8627 15.0374C24.395 15.0374 26.7242 12.9065 26.7242 9.65421C26.7242 6.40187 24.395 4.27103 20.8627 4.27103C17.2941 4.27103 15 6.40187 15 9.65421C15 11.5607 15.6906 12.9813 17.1849 14.1028C16.9664 14.4393 16.7115 14.7009 16.3473 14.9626ZM8.48179 13.6168C6.9888 13.6168 5.86124 14.7757 5.86124 16.3458C5.86124 17.9159 6.9888 19.0748 8.48179 19.0748C9.97479 19.0748 11.1036 17.9159 11.1036 16.3458C11.1036 14.7757 9.97479 13.6168 8.48179 13.6168ZM3.27451 27H2V26.1776C2 22.5888 3.38375 20.3084 5.97049 19.4486C5.09524 18.7383 4.58543 17.6168 4.58543 16.3458C4.58543 14.0654 6.2592 12.3458 8.48179 12.3458C10.7018 12.3458 12.3782 14.0654 12.3782 16.3458C12.3782 17.6168 11.8683 18.7009 10.9944 19.4486C13.6149 20.3084 15 22.5888 15 26.1776V27H13.7242V26.215C13.7242 22.4019 11.9048 20.3458 8.48179 20.3458C5.16677 20.3458 3.27451 22.4766 3.27451 26.215V27Z" fill="white"/>
</mask>
<g mask="url(#mask0)">
<path d="M16.3473 14.9626C14.5981 13.7664 13.7242 11.972 13.7242 9.65421C13.7242 5.69159 16.6387 3 20.8627 3C25.0868 3 28 5.72897 28 9.65421C28 13.5794 25.0868 16.3084 20.8627 16.3084C20.2424 16.3084 19.8054 16.271 19.1148 16.1215C18.2409 17.0561 17.3305 17.8785 16.3109 18.7009L15.4721 17.6916C16.6751 16.7196 17.6947 15.8224 18.6779 14.7383C19.5869 14.9626 20.098 15.0374 20.8627 15.0374C24.395 15.0374 26.7242 12.9065 26.7242 9.65421C26.7242 6.40187 24.395 4.27103 20.8627 4.27103C17.2941 4.27103 15 6.40187 15 9.65421C15 11.5607 15.6906 12.9813 17.1849 14.1028C16.9664 14.4393 16.7115 14.7009 16.3473 14.9626ZM8.48179 13.6168C6.9888 13.6168 5.86124 14.7757 5.86124 16.3458C5.86124 17.9159 6.9888 19.0748 8.48179 19.0748C9.97479 19.0748 11.1036 17.9159 11.1036 16.3458C11.1036 14.7757 9.97479 13.6168 8.48179 13.6168ZM3.27451 27H2V26.1776C2 22.5888 3.38375 20.3084 5.97049 19.4486C5.09524 18.7383 4.58543 17.6168 4.58543 16.3458C4.58543 14.0654 6.2592 12.3458 8.48179 12.3458C10.7018 12.3458 12.3782 14.0654 12.3782 16.3458C12.3782 17.6168 11.8683 18.7009 10.9944 19.4486C13.6149 20.3084 15 22.5888 15 26.1776V27H13.7242V26.215C13.7242 22.4019 11.9048 20.3458 8.48179 20.3458C5.16677 20.3458 3.27451 22.4766 3.27451 26.215V27Z" fill="#EFDF00"/>
</g>
</svg>
